<?xml version="1.0" standalone="no"?>
<svg xmlns:xlink="http://www.w3.org/1999/xlink" id="wave" style="transform:rotate(0deg); transition: 0.3s" viewBox="0 0 1440 490" version="1.1" xmlns="http://www.w3.org/2000/svg"><defs><linearGradient id="sw-gradient-0" x1="0" x2="0" y1="1" y2="0"><stop stop-color="rgba(150, 100, 237, 1)" offset="0%"/><stop stop-color="rgba(119, 65, 229, 1)" offset="100%"/></linearGradient></defs><path style="transform:translate(0, 0px); opacity:1" fill="url(#sw-gradient-0)" d="M0,98L120,130.7C240,163,480,229,720,245C960,261,1200,229,1440,187.8C1680,147,1920,98,2160,130.7C2400,163,2640,278,2880,302.2C3120,327,3360,261,3600,204.2C3840,147,4080,98,4320,73.5C4560,49,4800,49,5040,106.2C5280,163,5520,278,5760,285.8C6000,294,6240,196,6480,163.3C6720,131,6960,163,7200,163.3C7440,163,7680,131,7920,98C8160,65,8400,33,8640,73.5C8880,114,9120,229,9360,245C9600,261,9840,180,10080,196C10320,212,10560,327,10800,359.3C11040,392,11280,343,11520,318.5C11760,294,12000,294,12240,285.8C12480,278,12720,261,12960,277.7C13200,294,13440,343,13680,359.3C13920,376,14160,359,14400,310.3C14640,261,14880,180,15120,187.8C15360,196,15600,294,15840,302.2C16080,310,16320,229,16560,212.3C16800,196,17040,245,17160,269.5L17280,294L17280,490L17160,490C17040,490,16800,490,16560,490C16320,490,16080,490,15840,490C15600,490,15360,490,15120,490C14880,490,14640,490,14400,490C14160,490,13920,490,13680,490C13440,490,13200,490,12960,490C12720,490,12480,490,12240,490C12000,490,11760,490,11520,490C11280,490,11040,490,10800,490C10560,490,10320,490,10080,490C9840,490,9600,490,9360,490C9120,490,8880,490,8640,490C8400,490,8160,490,7920,490C7680,490,7440,490,7200,490C6960,490,6720,490,6480,490C6240,490,6000,490,5760,490C5520,490,5280,490,5040,490C4800,490,4560,490,4320,490C4080,490,3840,490,3600,490C3360,490,3120,490,2880,490C2640,490,2400,490,2160,490C1920,490,1680,490,1440,490C1200,490,960,490,720,490C480,490,240,490,120,490L0,490Z"/></svg>